<?xml version="1.0" standalone="no"?>
<!DOCTYPE svg PUBLIC "-//W3C//DTD SVG 20010904//EN"
 "http://www.w3.org/TR/2001/REC-SVG-20010904/DTD/svg10.dtd">
<svg version="1.0" xmlns="http://www.w3.org/2000/svg"
 width="700.000000pt" height="700.000000pt" viewBox="0 0 700.000000 700.000000"
 preserveAspectRatio="xMidYMid meet">
<metadata>
Created by potrace 1.11, written by Peter Selinger 2001-2013
</metadata>
<g transform="translate(0.000000,700.000000) scale(0.100000,-0.100000)"
fill="#000000" stroke="none">
<path d="M3260 6879 c-434 -44 -876 -218 -1231 -486 -412 -310 -731 -779 -873
-1285 -38 -132 -71 -310 -81 -423 -3 -38 -8 -93 -11 -122 l-5 -51 -52 -17
c-202 -65 -366 -240 -472 -503 -250 -618 -241 -1897 16 -2405 89 -175 194
-314 378 -498 526 -526 1276 -864 2120 -954 932 -101 1867 112 2576 586 175
116 286 208 446 368 381 381 490 622 555 1216 22 199 25 706 5 900 -48 490
-139 814 -285 1019 -93 130 -240 242 -362 275 l-41 11 -7 97 c-62 882 -588
1659 -1381 2043 -210 101 -462 178 -705 215 -128 19 -460 27 -590 14z m490
-410 c362 -39 722 -186 1033 -421 182 -137 402 -385 526 -590 219 -366 325
-809 292 -1226 -41 -523 -246 -969 -615 -1338 -237 -237 -492 -397 -796 -502
-236 -81 -431 -113 -690 -113 -233 0 -398 23 -605 86 -691 210 -1242 776
-1424 1465 -58 220 -65 283 -65 550 0 267 7 330 65 550 182 690 733 1255 1426
1465 270 82 553 107 853 74z m2191 -2353 c307 -454 386 -1179 223 -2058 l-26
-136 -106 -80 c-485 -361 -1161 -615 -1877 -706 -442 -56 -958 -52 -1383 9
-395 58 -812 175 -1152 323 -243 106 -531 276 -695 409 l-60 49 -22 104 c-12
58 -34 184 -47 280 -91 639 -35 1208 159 1618 48 101 157 272 199 311 l25 24
7 -29 c52 -229 95 -373 159 -539 372 -963 1004 -1518 1858 -1630 224 -29 560
-16 777 30 626 132 1125 525 1477 1162 155 282 306 687 355 950 l12 65 28 -33
c16 -19 56 -74 89 -123z m135 -2421 c-9 -14 -24 -37 -33 -52 -10 -16 -49 -68
-89 -118 -344 -435 -965 -765 -1807 -961 -465 -109 -824 -108 -1297 1 -723
167 -1298 445 -1658 803 -97 97 -207 231 -252 307 -27 45 -27 45 65 -34 145
-126 476 -313 720 -409 521 -205 1094 -302 1775 -302 804 0 1481 139 2039 419
197 99 444 263 520 345 31 33 38 33 17 1z"/>
<path d="M3305 6023 c-684 -94 -1224 -564 -1400 -1217 -168 -628 53 -1305 560
-1713 205 -165 438 -274 712 -334 140 -30 419 -37 563 -15 369 59 671 210 928
465 315 314 483 721 483 1171 0 450 -168 857 -483 1171 -255 253 -558 406
-920 463 -91 15 -362 20 -443 9z m405 -124 c503 -64 963 -402 1179 -864 99
-212 144 -416 144 -655 0 -414 -152 -786 -441 -1078 -293 -295 -671 -453
-1087 -453 -299 0 -554 71 -803 223 -457 279 -732 771 -732 1308 0 419 163
806 462 1096 346 337 794 485 1278 423z"/>
<path d="M3265 5824 c-316 -53 -595 -201 -820 -435 -262 -272 -405 -628 -405
-1009 0 -381 143 -737 405 -1009 285 -296 646 -451 1053 -451 304 0 569 79
817 245 593 395 811 1159 520 1816 -176 398 -543 707 -965 813 -52 14 -127 29
-167 35 -97 15 -339 12 -438 -5z m407 -933 c220 -76 368 -283 368 -511 0 -228
-149 -435 -368 -511 -265 -92 -572 54 -673 320 -114 302 62 636 377 716 78 19
220 13 296 -14z"/>
</g>
</svg>
