<?xml version="1.0" encoding="UTF-8"?>
<svg width="44px" height="24px" viewBox="0 0 44 24" version="1.1" xmlns="http://www.w3.org/2000/svg" xmlns:xlink="http://www.w3.org/1999/xlink">
    <!-- Generator: Sketch 47.1 (45422) - http://www.bohemiancoding.com/sketch -->
    <title>Carrossel</title>
    <desc>Created with Sketch.</desc>
    <defs>
        <rect id="path-1" x="0" y="0" width="20" height="20" rx="3"></rect>
        <rect id="path-2" x="22" y="0" width="20" height="20" rx="3"></rect>
    </defs>
    <g id="Builder-/-Setup---2" stroke="none" stroke-width="1" fill="none" fill-rule="evenodd">
        <g id="Carrossel">
            <g id="Group-2" transform="translate(1.000000, 2.000000)">
                <g id="Rectangle-2">
                    <use fill="#B0F6F8" fill-rule="evenodd" xlink:href="#path-1"></use>
                    <rect stroke="#0CC8CC" stroke-width="1" x="0.5" y="0.5" width="19" height="19" rx="3"></rect>
                </g>
                <path d="M3,0 L17,0 L17,-4.4408921e-16 C18.6568542,-7.48448398e-16 20,1.34314575 20,3 L20,10.4761905 L0,10.4761905 L0,3 L-4.4408921e-16,3 C-6.46995335e-16,1.34314575 1.34314575,-1.39730022e-16 3,-4.4408921e-16 Z" id="Rectangle-2-Copy-2" fill="#0CC8CC"></path>
                <g id="Rectangle-2-Copy">
                    <use fill="#B0F6F8" fill-rule="evenodd" xlink:href="#path-2"></use>
                    <rect stroke="#0CC8CC" stroke-width="1" x="22.5" y="0.5" width="19" height="19" rx="3"></rect>
                </g>
                <path d="M25,0 L39,0 L39,-4.4408921e-16 C40.6568542,-7.48448398e-16 42,1.34314575 42,3 L42,10.4761905 L22,10.4761905 L22,3 L22,3 C22,1.34314575 23.3431458,-1.39730022e-16 25,-4.4408921e-16 Z" id="Rectangle-2-Copy-3" fill="#0CC8CC"></path>
            </g>
        </g>
    </g>
</svg>