<?xml version="1.0" encoding="UTF-8"?>
<svg width="20px" height="24px" viewBox="0 0 20 24" version="1.1" xmlns="http://www.w3.org/2000/svg" xmlns:xlink="http://www.w3.org/1999/xlink">
    <!-- Generator: Sketch 47.1 (45422) - http://www.bohemiancoding.com/sketch -->
    <title>Menu</title>
    <desc>Created with Sketch.</desc>
    <defs>
        <rect id="path-1" x="0" y="0" width="20" height="20" rx="3"></rect>
    </defs>
    <g id="Builder-/-Setup---2" stroke="none" stroke-width="1" fill="none" fill-rule="evenodd">
        <g id="Menu">
            <g id="Group-2" transform="translate(0.000000, 2.000000)">
                <g id="Rectangle-2">
                    <use fill="#B0F6F8" fill-rule="evenodd" xlink:href="#path-1"></use>
                    <rect stroke="#0CC8CC" stroke-width="1" x="0.5" y="0.5" width="19" height="19" rx="3"></rect>
                </g>
                <path d="M3,-4.4408921e-16 L17,-4.4408921e-16 L17,2.51132448e-12 C18.6568542,2.50954854e-12 20,1.34314575 20,3 L20,9 L7.27595761e-12,9 L2.26198689e-12,3 L-2.44693155e-13,3 C-1.6296549e-12,1.34314575 1.34314575,-1.12093221e-12 3,-2.50599541e-12 Z" id="Rectangle-2-Copy-2" fill="#0CC8CC"></path>
            </g>
            <g id="Group-28-Copy" transform="translate(0.000000, 4.000000)">
                <path d="M3,1 C3,1 7.66666667,1 17,1" id="Path-13" stroke="#B0F6F8"></path>
                <path d="M3,4 C3,4 7.66666667,4 17,4" id="Path-13-Copy" stroke="#B0F6F8"></path>
                <path d="M-1.38200562e-12,12 C1.97188901,12 8.29116685,12 18.9578335,12" id="Path-13-Copy-2" stroke="#0CC8CC"></path>
            </g>
        </g>
    </g>
</svg>