<?xml version="1.0" encoding="UTF-8"?>
<svg width="25px" height="25px" viewBox="0 0 25 25" version="1.1" xmlns="http://www.w3.org/2000/svg" xmlns:xlink="http://www.w3.org/1999/xlink">
    <!-- Generator: Sketch 48 (47235) - http://www.bohemiancoding.com/sketch -->
    <title>Tracking</title>
    <desc>Created with Sketch.</desc>
    <defs></defs>
    <g id="Builder-/-Setup---2" stroke="none" stroke-width="1" fill="none" fill-rule="evenodd">
        <g id="Tracking">
            <g id="Group-15-Copy-3" transform="translate(1.000000, 1.000000)">
                <polygon id="Path-15" fill="#B0F6F8" points="16.1851852 6.81481481 17.037037 3.40740741 18.7407407 0.851851852 20.4444444 3.40740741 22.1481481 4.25925926 18.7407407 6.81481481"></polygon>
                <circle id="Oval-4" fill="#B0F6F8" cx="9.7962963" cy="12.3518519" r="9.7962963"></circle>
                <path d="M19.67993,7.02901503 L22.8142325,3.89463788 C22.9944668,3.71440327 23.049284,3.44383998 22.9533892,3.20766077 C22.8575648,2.97155201 22.6296296,2.81569628 22.3747791,2.81217332 L20.2181671,2.78180541 L20.1877992,0.625190473 C20.1842058,0.370339577 20.0284207,0.142404092 19.7923123,0.0465795909 C19.5562039,-0.0492449098 19.2855705,0.00550188217 19.1053361,0.185736494 L15.9709632,3.32004318 C15.8896534,3.40128262 15.8320179,3.50316662 15.8041161,3.61463306 L15.7500035,3.83101323 C14.1764405,2.86374945 12.3259733,2.30507852 10.347341,2.30507852 C4.64184523,2.30514898 0,6.94700053 0,12.6525745 C0,18.3581485 4.64184523,23 10.3474114,23 C16.0529776,23 20.6948229,18.3581485 20.6948229,12.6525745 C20.6948229,10.6739395 20.1361527,8.82346972 19.1688902,7.24990459 L19.3852701,7.19579193 C19.4968068,7.16796055 19.5986907,7.11032493 19.67993,7.02901503 Z M19.4266296,12.6525745 C19.4266296,17.658841 15.3537416,21.7317346 10.3474819,21.7317346 C5.34122221,21.7317346 1.26826372,17.6589114 1.26826372,12.6525745 C1.26826372,7.64623754 5.34115175,3.57341443 10.3474114,3.57341443 C12.2270487,3.57341443 13.9750684,4.14765684 15.4253985,5.12978751 L14.909356,7.19388953 L14.4885743,7.61467183 C13.3612992,6.68637198 11.918297,6.12819426 10.347341,6.12819426 C6.74977,6.12819426 3.82289916,9.05506908 3.82289916,12.6526449 C3.82289916,16.2502208 6.74977,19.1770956 10.347341,19.1770956 C13.9449119,19.1770956 16.8717828,16.2502208 16.8717828,12.6526449 C16.8717828,11.0816868 16.3136058,9.63875303 15.3853072,8.51140596 L15.806089,8.09062367 L17.8701882,7.57458055 C18.852388,9.02491255 19.4266296,10.7729346 19.4266296,12.6525745 Z M9.66128075,13.3387766 C9.78507738,13.4625734 9.94741514,13.524507 10.1096824,13.524507 C10.2719497,13.524507 10.434217,13.4625734 10.5580841,13.3387766 L12.0308906,11.8659681 C12.1430615,12.1050361 12.2060519,12.3715128 12.2060519,12.6525745 C12.2060519,13.6774034 11.3723094,14.5112175 10.3474114,14.5112175 C9.32251342,14.5112175 8.48877094,13.6774739 8.48877094,12.6525745 C8.48877094,11.6276751 9.32251342,10.7939315 10.3474114,10.7939315 C10.6284728,10.7939315 10.8950195,10.8569924 11.1340872,10.9691635 L9.66128075,12.441972 C9.41361703,12.689636 9.41361703,13.0911125 9.66128075,13.3387766 Z M12.0630199,10.0402295 C11.5700881,9.71541263 10.9806273,9.52566602 10.3474114,9.52566602 C8.62320689,9.52566602 7.22050721,10.9283676 7.22050721,12.6525745 C7.22050721,14.3767814 8.62320689,15.779483 10.3474114,15.779483 C12.071616,15.779483 13.4743156,14.3767814 13.4743156,12.6525745 C13.4743156,12.0193577 13.2845693,11.4298961 12.9597529,10.9369636 L14.4827262,9.4139882 C15.1838647,10.3073403 15.6035895,11.4315167 15.6035895,12.6525745 C15.6035895,15.5508429 13.2456759,17.9087597 10.3474114,17.9087597 C7.44914698,17.9087597 5.09123334,15.5508429 5.09123334,12.6525745 C5.09123334,9.7543061 7.44914698,7.39638925 10.3474114,7.39638925 C11.5684676,7.39638925 12.6926424,7.81611466 13.5859933,8.51725407 L12.0630199,10.0402295 Z M18.9073461,6.00806134 L16.3535561,6.64649207 L16.991986,4.09269867 L18.9408141,2.14386789 L18.9587107,3.41614951 C18.963502,3.75935624 19.2406176,4.03647224 19.5838238,4.04126346 L20.8561037,4.0591601 L18.9073461,6.00806134 Z" id="Shape" fill="#0CC8CC" fill-rule="nonzero"></path>
            </g>
        </g>
    </g>
</svg>