<?xml version="1.0" encoding="UTF-8"?>
<svg width="41px" height="24px" viewBox="0 0 41 24" version="1.1" xmlns="http://www.w3.org/2000/svg" xmlns:xlink="http://www.w3.org/1999/xlink">
    <!-- Generator: Sketch 47.1 (45422) - http://www.bohemiancoding.com/sketch -->
    <title>Text</title>
    <desc>Created with Sketch.</desc>
    <defs></defs>
    <g id="Builder-/-Setup---2" stroke="none" stroke-width="1" fill="none" fill-rule="evenodd">
        <g id="Text">
            <path d="M7,5 L34,5 L34,5 C37.8659932,5 41,8.13400675 41,12 L41,12 L41,12 C41,15.8659932 37.8659932,19 34,19 L2,19 L2,19 C0.8954305,19 1.3527075e-16,18.1045695 0,17 L0,12 L0,12 C-4.73447626e-16,8.13400675 3.13400675,5 7,5 Z" id="Rectangle-5-Copy-15" fill="#0CC8CC"></path>
            <g id="Group-28" transform="translate(8.000000, 9.000000)" stroke="#B0F6F8">
                <path d="M0,1 C0,1 8.00694143,1 24.0208243,1" id="Path-13"></path>
                <path d="M0,5 C0,5 8.00694143,5 24.0208243,5" id="Path-13-Copy"></path>
            </g>
        </g>
    </g>
</svg>