<?xml version="1.0" encoding="UTF-8"?>
<svg width="28px" height="24px" viewBox="0 0 28 24" version="1.1" xmlns="http://www.w3.org/2000/svg" xmlns:xlink="http://www.w3.org/1999/xlink">
    <!-- Generator: Sketch 47.1 (45422) - http://www.bohemiancoding.com/sketch -->
    <title>Image</title>
    <desc>Created with Sketch.</desc>
    <defs></defs>
    <g id="Builder-/-Setup---2" stroke="none" stroke-width="1" fill="none" fill-rule="evenodd">
        <g id="Image">
            <rect id="Rectangle-15" fill="#0CC8CC" x="0" y="2" width="28" height="19" rx="3"></rect>
            <g id="Group-27" transform="translate(2.000000, 4.000000)" fill="#B0F6F8">
                <path d="M3.91418235,0 C3.21820504,0 2.49690796,0.117333333 2.00538783,0.436333333 C1.20813142,0.953333333 0.974872999,1.963 1.00209176,2.89266667 C1.02551255,3.69666667 1.23028623,4.56 1.77434489,5.154 C2.29340027,5.72033333 3.36062878,5.975 4.08825581,5.975 C4.12117151,5.975 4.1559862,6 4.1559862,6.04633333 L4.1559862,6.85766667 C4.1559862,6.93766667 4.21517118,7 4.2911305,7 C4.29556146,7 4.29967592,6.999 4.30379039,6.99866667 C4.33259163,6.996 4.35791141,6.98466667 4.37816723,6.967 C4.74498746,6.637 5.1114912,6.301 5.46533506,5.95566667 C5.80462004,5.62433333 6.18884762,5.284 6.45407226,4.88733333 C7.01363928,4.05066667 7.09656155,2.86766667 6.9110942,1.887 C6.73258978,0.943333333 6.09611395,0.329 5.20390838,0.133333333 C4.83677165,0.053 4.3813322,0 3.91418235,0" id="Fill-20"></path>
                <path d="M0,12.7504425 L0,12.9785393 L0.00178918967,12.9785393 C0.00178918967,14.0824105 0.896130087,14.9775514 2.0000008,14.9785385 L22.0000008,14.9982116 L21.9999992,14.9999992 C23.1045683,15.0009869 24.0007991,14.1063574 24.0017868,13.0017884 C24.0017873,13.0011923 24.0017876,13.0005961 24.0017876,13 L24,9.62386016 L19.2397224,5.48527899 L19.2397224,5.48527899 C18.4872259,4.83105922 17.3677895,4.83105922 16.6152931,5.48527899 L10.2791784,10.9938915 L8.60144798,9.53527412 L8.60144798,9.53527412 C7.97010699,8.98638681 7.06384483,8.88843936 6.32980694,9.28975856 L0,12.7504425 Z" id="Path-7-Copy"></path>
            </g>
        </g>
    </g>
</svg>